<svg version="1.1" id="Layer_1" xmlns="http://www.w3.org/2000/svg" xmlns:xlink="http://www.w3.org/1999/xlink" x="0px" y="0px"
	 width="100%" viewBox="0 0 207 87" enable-background="new 0 0 207 87" xml:space="preserve">
<path fill="#000000" opacity="1.000000" stroke="none" 
	d="
M208.000000,61.000000 
	C208.000000,69.993149 208.000000,78.986298 208.000000,88.000000 
	C207.840317,88.000000 207.680618,88.000000 207.520935,88.000000 
	C138.740005,88.000000 69.959076,88.000000 1.089076,88.000000 
	C1.089076,59.081707 1.089076,30.163046 1.089076,1.122194 
	C69.999863,1.122194 138.999893,1.122194 208.000000,1.122194 
	C208.000000,16.419319 208.000000,31.741001 207.665985,47.552048 
	C206.890717,48.087372 206.449463,48.133331 205.640411,48.122704 
	C204.151566,49.427624 203.030518,50.789127 201.844543,52.229477 
	C199.101624,53.894093 193.925507,47.264442 192.671249,54.068321 
	C191.306396,53.398796 189.917419,52.181248 188.468292,52.104843 
	C183.688614,51.852825 178.856613,51.694992 174.106964,52.150356 
	C171.737976,52.377480 169.504379,54.016464 166.905060,54.967964 
	C166.096832,54.592262 165.593063,54.265404 165.012955,53.534138 
	C161.661270,53.068562 158.385925,53.007393 155.007751,52.696114 
	C154.600739,52.267746 154.296570,52.089489 154.008484,51.939072 
	C154.024536,51.966908 154.068954,51.920444 153.821167,51.594772 
	C148.072479,51.462975 142.571564,51.656853 137.289185,51.843029 
	C137.289185,55.891380 137.289185,58.828411 137.289185,61.765442 
	C137.776611,61.932972 138.264038,62.100506 138.751465,62.268036 
	C139.652603,59.498981 140.553726,56.729923 141.593033,53.536270 
	C143.421524,54.982445 144.673676,55.972782 145.956985,56.972122 
	C145.988144,56.981117 145.952240,56.927090 145.671310,57.093849 
	C145.587830,58.189556 145.785278,59.118504 146.116486,60.317825 
	C146.824020,60.749287 147.397797,60.910374 148.107330,61.345802 
	C148.828842,61.690159 149.414581,61.760174 150.372253,61.894733 
	C151.495270,61.917496 152.246384,61.875706 153.317139,61.889755 
	C154.440247,61.329296 155.243683,60.712994 156.269562,60.055557 
	C156.491989,60.014427 156.943848,60.036678 157.004059,60.441856 
	C161.501205,63.653076 165.065109,61.502262 168.706802,58.869694 
	C168.138824,57.478958 167.609970,56.184059 167.488220,54.924698 
	C168.934402,55.810493 170.759293,56.563885 170.878067,57.527584 
	C171.425186,61.965916 174.517776,62.826271 177.649292,61.787956 
	C180.728256,60.767067 185.786575,61.256683 185.368668,55.484566 
	C185.339661,55.084007 186.722870,54.581203 187.785248,53.915462 
	C187.953156,56.883415 188.090118,59.304363 188.211121,61.443321 
	C191.516785,61.198345 194.479553,60.847256 197.447433,60.796600 
	C200.297913,60.747948 203.153687,61.010551 206.336273,61.077110 
	C207.110275,61.011894 207.555145,61.005947 208.000000,61.000000 
M62.478203,50.087711 
	C62.369614,50.402531 62.261024,50.717346 61.724777,51.558918 
	C59.669003,51.709782 57.519108,52.297279 55.585690,51.880516 
	C53.879681,51.512768 52.415241,50.024345 50.964401,48.131065 
	C50.977036,47.306229 50.998180,46.481422 51.000988,45.656551 
	C51.029087,37.404755 50.649704,37.094944 42.430313,36.951336 
	C39.902081,36.907162 37.382717,36.355869 34.669327,35.206535 
	C34.446686,27.054333 34.275433,18.900135 33.959167,10.751567 
	C33.893883,9.069510 33.288429,7.408417 32.414204,5.151354 
	C30.285013,5.148307 28.155821,5.145259 25.092522,5.004492 
	C18.709339,5.325826 12.326158,5.647160 5.995685,5.995373 
	C5.995685,5.995373 5.968396,5.942873 5.252052,6.436533 
	C5.165016,15.895901 5.044783,25.355114 5.000582,34.814682 
	C4.959066,43.699528 4.994411,43.699692 14.424628,44.795052 
	C16.607903,44.883007 18.791176,44.970963 20.988108,45.988731 
	C21.066423,53.317383 21.144737,60.646034 21.084688,68.816200 
	C21.029100,75.475624 21.493294,75.968147 27.994621,75.987297 
	C33.791481,76.004372 39.593601,76.128922 45.381794,75.905418 
	C46.890366,75.847168 48.355618,74.667206 50.238464,73.259232 
	C50.534000,69.533852 50.829536,65.808472 51.938370,62.031975 
	C58.522717,62.784386 54.451424,56.146851 57.197556,53.892033 
	C59.257893,62.510456 59.660965,62.791302 67.723907,60.989979 
	C68.876701,61.183659 70.088539,61.211941 71.172371,61.598820 
	C76.720169,63.579113 83.648186,60.325439 84.343994,55.711079 
	C86.267395,55.481770 88.067932,55.267105 90.189987,55.680702 
	C94.210701,58.711266 88.901756,61.363811 89.829193,64.365555 
	C90.378868,66.144676 89.725746,69.309998 90.639679,69.757866 
	C92.761925,70.797867 95.506683,70.567558 98.694321,70.990578 
	C99.491890,70.679199 100.289459,70.367821 101.021118,70.049660 
	C101.021118,70.049660 101.026558,70.115692 101.724007,70.021225 
	C102.847023,68.699944 103.970039,67.378662 105.035522,66.016434 
	C105.035522,66.016434 105.056076,66.083992 105.530502,65.902756 
	C105.369347,65.575050 105.208183,65.247337 105.000648,64.994972 
	C105.000648,64.994972 105.076019,65.041328 105.017426,64.244087 
	C105.046410,63.186695 105.075394,62.129307 105.736328,61.283958 
	C106.632912,61.346897 107.529037,61.417324 108.426155,61.471359 
	C111.098129,61.632286 114.334496,62.773895 116.281403,61.661484 
	C118.164864,60.585320 118.708855,57.180084 119.882271,54.818283 
	C119.980148,54.621288 120.391022,54.579800 120.662804,54.463345 
	C121.782730,56.937477 122.894341,59.393246 124.683800,61.964142 
	C125.754166,61.650070 126.824532,61.335999 128.343307,61.679577 
	C130.589920,61.467079 132.836517,61.254581 135.021820,61.022430 
	C135.021820,61.022430 135.047058,61.081657 135.718155,60.600296 
	C135.492416,57.706577 135.266663,54.812862 135.020706,51.978611 
	C135.020706,51.978611 135.081192,51.961697 134.614212,51.292000 
	C132.022858,51.537437 129.431519,51.782875 126.375984,52.199944 
	C125.959412,52.441093 125.542831,52.682247 124.581757,52.279613 
	C118.391342,52.141201 112.200928,52.002789 106.014496,51.141064 
	C105.000916,49.816021 103.987335,48.490978 102.227158,47.046364 
	C101.474350,47.086636 100.721535,47.126907 99.253250,47.003704 
	C97.107430,47.343945 94.961609,47.684185 92.214233,48.318752 
	C91.415459,49.884098 90.616684,51.449440 89.117104,52.613800 
	C82.771622,52.381290 76.426147,52.148777 69.769928,51.362579 
	C69.163353,51.287949 68.556786,51.213314 67.445709,50.912945 
	C66.996628,50.599483 66.547539,50.286018 65.781349,49.373947 
	C64.828041,49.562996 63.874725,49.752045 62.976612,49.972420 
	C62.976612,49.972420 62.986675,49.909752 62.478203,50.087711 
M76.969528,25.931921 
	C76.969528,25.931921 76.971352,25.858196 76.249229,25.706028 
	C74.836700,25.532482 73.424164,25.358936 71.266884,25.040405 
	C70.512611,25.083479 69.758339,25.126551 68.290085,25.046461 
	C67.137253,24.047508 65.984413,23.048557 63.906548,21.248045 
	C63.264668,21.730486 61.640522,22.951202 59.428738,24.190735 
	C58.950008,24.521469 58.471279,24.852203 57.353100,25.065245 
	C56.851051,25.392775 56.348999,25.720304 55.591156,25.981504 
	C55.417423,25.935457 55.242447,25.930092 55.141247,25.829807 
	C55.141247,25.829807 54.894276,25.727861 54.963219,25.071211 
	C54.719604,17.257248 48.884895,23.580326 46.259453,20.227442 
	C46.098969,23.089281 46.017826,24.536316 45.991100,26.002031 
	C45.991100,26.002031 45.963421,25.951591 45.170906,25.966471 
	C41.061771,23.277906 39.037895,26.291767 36.961239,29.017147 
	C36.241505,29.961720 34.984844,31.328369 35.248421,32.007118 
	C35.708336,33.191463 37.148201,34.801334 38.191650,34.811832 
	C42.440350,34.854576 46.694477,34.358101 50.987610,34.015358 
	C50.987610,34.015358 50.961353,34.070045 51.319054,34.660946 
	C53.190468,34.446091 55.061882,34.231236 56.931370,34.073807 
	C56.931370,34.073807 56.988132,34.064907 57.431305,34.748440 
	C60.326107,34.512180 63.220905,34.275921 66.954979,34.013065 
	C70.460007,34.342255 73.980614,34.994114 77.461617,34.825954 
	C78.683174,34.766945 80.185059,32.877632 80.861267,31.485264 
	C81.442291,30.288872 81.029518,28.609842 81.723892,27.342358 
	C82.568428,29.434511 87.244858,29.321558 85.067505,33.152687 
	C87.286934,33.500599 89.510330,33.825935 91.722404,34.215595 
	C92.161751,34.292984 92.557655,34.616932 93.832741,34.965900 
	C99.222206,34.924736 104.611671,34.883572 110.733849,34.729736 
	C112.152176,34.436329 113.570496,34.142918 115.727135,33.986118 
	C116.476273,34.023792 117.225410,34.061466 118.379471,34.751244 
	C119.581886,33.697666 121.653648,32.765640 121.821182,31.567368 
	C122.294456,28.182411 121.986717,24.688255 121.986717,20.893972 
	C117.328522,22.790556 113.169304,24.483978 108.392799,26.031902 
	C106.965836,26.019243 105.538864,26.006582 103.925743,25.507339 
	C103.588249,25.660234 103.250748,25.813128 102.452774,26.047266 
	C102.452774,26.047266 102.011711,26.202492 101.360809,25.802656 
	C100.580559,24.245852 99.800308,22.689047 99.020058,21.132240 
	C98.328468,22.059191 97.636887,22.986143 96.202591,23.998428 
	C94.442741,24.647549 92.682899,25.296669 90.984077,25.976358 
	C90.984077,25.976358 90.955338,25.914448 90.248741,25.721195 
	C86.675087,21.890486 82.697250,26.478867 78.380455,25.064276 
	C77.885574,25.352764 77.390694,25.641253 76.969528,25.931921 
z"/>
<path fill="#A1A24F" opacity="1.000000" stroke="none" 
	d="
M206.008209,48.179291 
	C206.449463,48.133331 206.890717,48.087372 207.665985,48.020706 
	C208.000000,49.388996 208.000000,50.777996 207.810577,52.860550 
	C207.747421,55.036068 207.873718,56.518036 208.000000,58.000000 
	C208.000000,58.750000 208.000000,59.500000 208.000000,60.625000 
	C207.555145,61.005947 207.110275,61.011894 206.340668,60.606102 
	C206.013367,56.189339 206.010788,52.184311 206.008209,48.179291 
z"/>
<path fill="#928648" opacity="1.000000" stroke="none" 
	d="
M208.000000,57.583336 
	C207.873718,56.518036 207.747421,55.036068 207.810577,53.277054 
	C208.000000,54.388889 208.000000,55.777779 208.000000,57.583336 
z"/>
<path fill="#8F8C2E" opacity="1.000000" stroke="none" 
	d="
M34.859291,36.036789 
	C37.382717,36.355869 39.902081,36.907162 42.430313,36.951336 
	C50.649704,37.094944 51.029087,37.404755 51.000988,45.656551 
	C50.998180,46.481422 50.977036,47.306229 50.741310,48.950546 
	C50.720501,53.874382 50.922787,57.978741 51.125072,62.083096 
	C50.829536,65.808472 50.534000,69.533852 49.581200,73.632874 
	C43.121975,74.016434 37.295952,73.703133 31.525225,74.132660 
	C26.374075,74.516052 22.874086,73.019440 21.223053,67.974686 
	C21.144737,60.646034 21.066423,53.317383 21.268913,45.314468 
	C23.265959,44.252460 25.054661,43.345165 26.685097,43.572578 
	C31.967455,44.309349 33.957909,41.842030 34.113998,36.814270 
	C34.434620,36.424515 34.636280,36.220119 34.859291,36.036789 
M37.038998,54.515675 
	C37.038998,51.055054 37.038998,47.594437 37.038998,42.943096 
	C35.157959,44.292248 34.276630,44.624653 34.270206,44.973186 
	C34.138802,52.099915 34.039577,59.229801 34.178387,66.354294 
	C34.190098,66.955566 35.930054,67.523178 37.505417,68.503723 
	C37.214054,66.881279 37.060059,66.413406 37.056992,65.944542 
	C37.034191,62.460014 37.041348,58.975285 37.038998,54.515675 
z"/>
<path fill="#CD7D28" opacity="1.000000" stroke="none" 
	d="
M33.973694,36.978569 
	C33.957909,41.842030 31.967455,44.309349 26.685097,43.572578 
	C25.054661,43.345165 23.265959,44.252460 21.262085,44.849564 
	C18.791176,44.970963 16.607903,44.883007 13.871752,44.264832 
	C5.980179,41.622673 5.967185,41.622688 5.958358,33.626091 
	C5.948171,24.398367 5.963913,15.170614 5.968396,5.942873 
	C5.968396,5.942873 5.995685,5.995373 6.441106,5.996310 
	C13.266562,5.712236 19.646597,5.427224 26.026630,5.142212 
	C28.155821,5.145259 30.285013,5.148307 32.657776,5.879744 
	C32.871410,7.921689 32.768982,9.238246 32.823238,10.548314 
	C33.188137,19.359169 33.586308,28.168646 33.973694,36.978569 
M25.989885,12.017475 
	C25.989885,12.017475 25.962933,12.081185 25.653042,11.486601 
	C20.039553,8.925710 13.941733,9.606439 10.968341,13.561864 
	C10.968341,13.561864 10.802225,13.977347 10.510944,14.329858 
	C10.328139,14.574481 10.166682,14.832464 10.005501,15.956809 
	C9.760093,19.680033 9.488589,23.414282 14.626520,25.481403 
	C16.587267,25.761398 18.692646,25.696173 20.460413,26.436789 
	C21.744102,26.974594 22.581102,28.578608 23.617273,29.707218 
	C22.522066,30.465179 21.514055,31.441504 20.308424,31.922934 
	C18.960407,32.461216 17.433193,32.550739 15.260541,32.685196 
	C13.935506,31.317739 12.610472,29.950281 10.766631,28.047409 
	C9.178479,33.110031 10.815970,35.194603 13.979424,36.480862 
	C17.907431,38.077984 26.152454,37.138241 27.642981,34.508854 
	C29.787788,30.725266 30.104063,26.748852 27.048227,22.375490 
	C27.353043,20.892931 27.657856,19.410370 27.982777,17.986223 
	C27.982777,17.986223 27.923889,17.967554 28.455866,17.720388 
	C28.270512,16.495832 28.085155,15.271278 27.441141,13.904538 
	C27.149214,13.718879 26.986328,13.453897 26.636427,12.714867 
	C26.399261,12.474469 26.162098,12.234071 25.989885,12.017475 
z"/>
<path fill="#8F8F37" opacity="1.000000" stroke="none" 
	d="
M205.640411,48.122704 
	C206.010788,52.184311 206.013367,56.189339 206.011536,60.665375 
	C203.153687,61.010551 200.297913,60.747948 197.447433,60.796600 
	C194.479553,60.847256 191.516785,61.198345 188.211121,61.443321 
	C188.090118,59.304363 187.953156,56.883415 187.785248,53.915462 
	C186.722870,54.581203 185.339661,55.084007 185.368668,55.484566 
	C185.786575,61.256683 180.728256,60.767067 177.649292,61.787956 
	C174.517776,62.826271 171.425186,61.965916 170.878067,57.527584 
	C170.759293,56.563885 168.934402,55.810493 167.522583,54.953209 
	C167.149826,54.946182 167.209534,55.016819 167.209534,55.016815 
	C169.504379,54.016464 171.737976,52.377480 174.106964,52.150356 
	C178.856613,51.694992 183.688614,51.852825 188.468292,52.104843 
	C189.917419,52.181248 191.306396,53.398796 192.671249,54.068321 
	C193.925507,47.264442 199.101624,53.894093 201.844543,52.229477 
	C203.030518,50.789127 204.151566,49.427624 205.640411,48.122704 
z"/>
<path fill="#CB8132" opacity="1.000000" stroke="none" 
	d="
M89.817909,53.014782 
	C90.616684,51.449440 91.415459,49.884098 92.935913,48.161400 
	C95.761299,47.725098 97.865013,47.446140 99.968727,47.167183 
	C100.721535,47.126907 101.474350,47.086636 102.719078,47.403030 
	C103.431931,50.188564 103.652870,52.617435 103.857971,55.258026 
	C103.842125,55.469746 103.811584,55.893272 103.485840,55.953186 
	C102.072983,56.838947 100.985870,57.664791 99.898766,58.490639 
	C100.611977,59.000511 101.325188,59.510380 102.287643,60.048027 
	C102.703079,60.094166 102.869263,60.112522 103.185638,60.286118 
	C103.541916,60.644642 103.762100,60.831306 103.998344,61.000900 
	C104.000305,61.000458 103.995453,61.005676 104.009949,61.361076 
	C104.374969,62.824760 104.725494,63.933044 105.076019,65.041328 
	C105.076019,65.041328 105.000648,64.994972 105.014969,65.248680 
	C105.038216,65.696259 105.047142,65.890121 105.056076,66.083992 
	C105.056076,66.083992 105.035522,66.016434 104.675896,65.995293 
	C101.226311,66.164734 97.710434,61.602299 94.057007,67.441032 
	C97.338226,67.674797 99.671631,67.841034 102.002502,68.003662 
	C101.999954,68.000053 101.992752,67.994987 101.862198,68.255447 
	C101.496613,69.049171 101.261581,69.582428 101.026558,70.115692 
	C101.026558,70.115692 101.021118,70.049660 100.730347,70.062637 
	C99.626091,70.334457 98.812607,70.593300 97.999123,70.852135 
	C95.506683,70.567558 92.761925,70.797867 90.639679,69.757866 
	C89.725746,69.309998 90.378868,66.144676 89.829193,64.365555 
	C88.901756,61.363811 94.210701,58.711266 90.031006,55.027008 
	C89.853989,53.920471 89.835953,53.467628 89.817909,53.014782 
z"/>
<path fill="#D0812D" opacity="1.000000" stroke="none" 
	d="
M54.894276,25.727861 
	C54.894276,25.727861 55.141247,25.829807 55.229111,26.251768 
	C56.218800,27.448870 57.120621,28.224010 58.070190,29.334621 
	C58.992760,33.229065 61.489468,32.533733 64.136810,31.689335 
	C64.539162,30.988012 64.767952,30.495880 65.330856,30.004086 
	C66.110443,30.003046 66.555916,30.001671 67.273804,30.172466 
	C68.698822,30.899544 69.851448,31.454451 71.121384,32.066132 
	C71.238701,32.122906 71.620293,32.148987 71.620293,32.148987 
	C71.620293,32.148987 71.980263,32.010288 71.989136,32.005463 
	C71.998016,32.000633 72.013069,31.987137 72.149155,31.938934 
	C72.388947,31.783592 72.591148,31.592724 72.581779,31.581703 
	C72.403557,31.372046 72.200417,31.183584 71.986588,30.661602 
	C70.670273,29.544207 69.369820,28.755934 68.126572,27.677153 
	C68.457207,26.647636 68.730637,25.908630 69.004066,25.169622 
	C69.758339,25.126551 70.512611,25.083479 71.877914,25.265221 
	C73.983078,25.612755 75.477211,25.735476 76.971352,25.858196 
	C76.971352,25.858196 76.969528,25.931921 77.283768,25.951239 
	C78.065941,25.973745 78.533882,25.976934 79.281601,26.081844 
	C80.059654,26.503788 80.557930,26.824009 81.056198,27.144230 
	C81.029518,28.609842 81.442291,30.288872 80.861267,31.485264 
	C80.185059,32.877632 78.683174,34.766945 77.461617,34.825954 
	C73.980614,34.994114 70.460007,34.342255 66.076309,34.015915 
	C62.461143,34.034145 59.724636,34.049526 56.988132,34.064907 
	C56.988132,34.064907 56.931370,34.073807 56.880898,33.720192 
	C54.258060,28.461723 52.938465,34.008736 50.961353,34.070045 
	C50.961353,34.070045 50.987610,34.015358 50.973740,33.696369 
	C50.665264,32.334366 50.370663,31.291351 50.076057,30.248339 
	C45.568253,31.818602 46.713402,27.978134 45.963421,25.951591 
	C45.963421,25.951591 45.991100,26.002031 46.161407,25.810463 
	C47.134598,25.316973 47.937473,25.015051 48.740353,24.713127 
	C50.173580,28.799753 52.757660,25.906965 54.894276,25.727861 
z"/>
<path fill="#8F8E36" opacity="1.000000" stroke="none" 
	d="
M103.035446,60.130878 
	C102.869263,60.112522 102.703079,60.094166 102.443680,59.762344 
	C102.837509,58.263676 103.324547,57.078472 103.811584,55.893272 
	C103.811584,55.893272 103.842125,55.469746 104.074501,55.020081 
	C104.874756,53.668404 105.442635,52.766388 106.010513,51.864376 
	C112.200928,52.002789 118.391342,52.141201 124.655411,52.950172 
	C124.488037,56.363491 124.246994,59.106251 124.005951,61.849014 
	C122.894341,59.393246 121.782730,56.937477 120.662804,54.463345 
	C120.391022,54.579800 119.980148,54.621288 119.882271,54.818283 
	C118.708855,57.180084 118.164864,60.585320 116.281403,61.661484 
	C114.334496,62.773895 111.098129,61.632286 108.426155,61.471359 
	C107.529037,61.417324 106.632912,61.346897 105.143478,61.158199 
	C104.365562,61.023518 104.180504,61.014599 103.995453,61.005676 
	C103.995453,61.005676 104.000305,61.000458 103.862778,60.829346 
	C103.524895,60.443741 103.294968,60.267956 103.035446,60.130878 
z"/>
<path fill="#929037" opacity="1.000000" stroke="none" 
	d="
M89.467506,52.814293 
	C89.835953,53.467628 89.853989,53.920471 89.870247,54.712879 
	C88.067932,55.267105 86.267395,55.481770 84.343994,55.711079 
	C83.648186,60.325439 76.720169,63.579113 71.172371,61.598820 
	C70.088539,61.211941 68.876701,61.183659 67.439728,60.719040 
	C67.434044,59.627983 67.712547,58.807865 68.146881,57.668262 
	C68.895363,55.537941 69.488014,53.727108 70.080673,51.916267 
	C76.426147,52.148777 82.771622,52.381290 89.467506,52.814293 
z"/>
<path fill="#92923A" opacity="1.000000" stroke="none" 
	d="
M67.991043,57.987751 
	C67.712547,58.807865 67.434044,59.627983 67.091141,60.766830 
	C59.660965,62.791302 59.257893,62.510456 57.197556,53.892033 
	C54.451424,56.146851 58.522717,62.784386 51.531723,62.057533 
	C50.922787,57.978741 50.720501,53.874382 50.681175,49.400394 
	C52.415241,50.024345 53.879681,51.512768 55.585690,51.880516 
	C57.519108,52.297279 59.669003,51.709782 62.095802,51.121941 
	C62.661896,50.441166 62.835178,50.182762 62.986675,49.909752 
	C62.986675,49.909752 62.976612,49.972420 63.346085,49.977577 
	C64.509857,49.979343 65.304153,49.975948 66.098450,49.972557 
	C66.547539,50.286018 66.996628,50.599483 67.617691,51.271629 
	C68.376045,53.733013 62.279453,56.047398 67.991043,57.987751 
z"/>
<path fill="#CD8132" opacity="1.000000" stroke="none" 
	d="
M45.567162,25.959030 
	C46.713402,27.978134 45.568253,31.818602 50.076057,30.248339 
	C50.370663,31.291351 50.665264,32.334366 50.953232,33.718872 
	C46.694477,34.358101 42.440350,34.854576 38.191650,34.811832 
	C37.148201,34.801334 35.708336,33.191463 35.248421,32.007118 
	C34.984844,31.328369 36.241505,29.961720 36.961239,29.017147 
	C39.037895,26.291767 41.061771,23.277906 45.567162,25.959030 
z"/>
<path fill="#CE7F2C" opacity="1.000000" stroke="none" 
	d="
M110.001137,34.842407 
	C104.611671,34.883572 99.222206,34.924736 93.290489,34.550716 
	C92.150604,31.395170 91.552971,28.654810 90.955338,25.914448 
	C90.955338,25.914448 90.984077,25.976358 91.261345,26.143801 
	C92.050247,27.462753 92.393867,28.736887 93.120026,29.731817 
	C93.868904,30.757866 94.990128,31.512159 95.948433,32.385353 
	C96.508331,31.180508 97.425964,30.007944 97.538338,28.762714 
	C97.681435,27.176926 97.172920,25.532335 96.945305,23.913094 
	C97.636887,22.986143 98.328468,22.059191 99.020058,21.132240 
	C99.800308,22.689047 100.580559,24.245852 101.729683,26.276409 
	C103.294830,28.573841 104.491096,30.397516 105.687950,32.222076 
	C107.050133,32.472424 108.522598,32.743038 109.996292,33.318367 
	C109.998726,34.029530 109.999931,34.435966 110.001137,34.842407 
z"/>
<path fill="#919238" opacity="1.000000" stroke="none" 
	d="
M147.971558,61.071457 
	C147.397797,60.910374 146.824020,60.749287 146.121216,59.928062 
	C145.978867,58.487648 145.965546,57.707367 145.952240,56.927090 
	C145.952240,56.927090 145.988144,56.981117 146.302246,56.978119 
	C147.076706,56.982254 147.537079,56.989384 148.151306,57.197094 
	C148.836578,57.649124 149.367996,57.900574 149.899414,58.152023 
	C149.933090,57.436241 149.966751,56.720455 150.125671,55.701321 
	C151.523605,54.238792 152.796280,53.079617 154.068954,51.920441 
	C154.068954,51.920444 154.024536,51.966908 154.188721,52.119217 
	C154.605469,52.496429 154.858032,52.721325 155.110596,52.946220 
	C158.385925,53.007393 161.661270,53.068562 164.749283,53.697033 
	C162.022583,56.188450 159.483215,58.112560 156.943848,60.036674 
	C156.943848,60.036678 156.491989,60.014427 156.024506,59.912415 
	C154.703857,60.484909 153.850677,61.159412 152.997498,61.833916 
	C152.246384,61.875706 151.495270,61.917496 150.273712,61.696175 
	C149.192688,61.312531 148.582123,61.191994 147.971558,61.071457 
z"/>
<path fill="#929136" opacity="1.000000" stroke="none" 
	d="
M124.344879,61.906578 
	C124.246994,59.106251 124.488037,56.363491 124.927666,53.272064 
	C125.542831,52.682247 125.959412,52.441093 127.069176,52.106049 
	C130.201981,51.995335 132.641586,51.978516 135.081192,51.961697 
	C135.081192,51.961697 135.020706,51.978611 135.002136,52.342556 
	C135.004730,55.498219 135.025894,58.289940 135.047058,61.081657 
	C135.047058,61.081657 135.021820,61.022430 134.603821,61.015480 
	C132.088852,61.012997 129.991867,61.017464 127.894897,61.021927 
	C126.824532,61.335999 125.754166,61.650070 124.344879,61.906578 
z"/>
<path fill="#C9853A" opacity="1.000000" stroke="none" 
	d="
M109.010094,26.177401 
	C113.169304,24.483978 117.328522,22.790556 121.986717,20.893972 
	C121.986717,24.688255 122.294456,28.182411 121.821182,31.567368 
	C121.653648,32.765640 119.581886,33.697666 118.136086,34.110909 
	C117.221649,31.326393 116.550598,29.182217 116.088188,27.704710 
	C113.852226,27.222235 111.431160,26.699818 109.010094,26.177401 
z"/>
<path fill="#93923C" opacity="1.000000" stroke="none" 
	d="
M147.997437,56.996513 
	C147.537079,56.989384 147.076706,56.982254 146.271088,56.969124 
	C144.673676,55.972782 143.421524,54.982445 141.593033,53.536270 
	C140.553726,56.729923 139.652603,59.498981 138.751465,62.268036 
	C138.264038,62.100506 137.776611,61.932972 137.289185,61.765442 
	C137.289185,58.828411 137.289185,55.891380 137.289185,51.843029 
	C142.571564,51.656853 148.072479,51.462975 153.821167,51.594769 
	C152.796280,53.079617 151.523605,54.238792 149.857117,55.785683 
	C148.974670,56.447773 148.486053,56.722141 147.997437,56.996513 
z"/>
<path fill="#D48536" opacity="1.000000" stroke="none" 
	d="
M108.701447,26.104652 
	C111.431160,26.699818 113.852226,27.222235 116.088188,27.704710 
	C116.550598,29.182217 117.221649,31.326393 117.933624,33.784855 
	C117.225410,34.061466 116.476273,34.023792 115.106934,33.764183 
	C112.989517,33.366051 111.492287,33.189850 109.995064,33.013649 
	C108.522598,32.743038 107.050133,32.472424 105.687950,32.222076 
	C104.491096,30.397516 103.294830,28.573841 102.055130,26.476328 
	C102.011711,26.202492 102.452774,26.047266 102.982605,26.017063 
	C103.712265,25.989214 103.912079,25.991568 104.111900,25.993921 
	C105.538864,26.006582 106.965836,26.019243 108.701447,26.104652 
z"/>
<path fill="#CE8639" opacity="1.000000" stroke="none" 
	d="
M90.602036,25.817822 
	C91.552971,28.654810 92.150604,31.395170 92.860916,34.481361 
	C92.557655,34.616932 92.161751,34.292984 91.722404,34.215595 
	C89.510330,33.825935 87.286934,33.500599 85.067505,33.152687 
	C87.244858,29.321558 82.568428,29.434511 81.390045,27.243294 
	C80.557930,26.824009 80.059654,26.503788 79.281494,25.882448 
	C79.001610,25.581331 79.001984,25.181257 79.001984,25.181257 
	C82.697250,26.478867 86.675087,21.890486 90.602036,25.817822 
z"/>
<path fill="#CC8539" opacity="1.000000" stroke="none" 
	d="
M63.963257,31.898525 
	C61.489468,32.533733 58.992760,33.229065 58.252972,29.065277 
	C58.930798,27.030945 59.473587,25.601431 60.016376,24.171917 
	C61.640522,22.951202 63.264668,21.730486 63.906548,21.248045 
	C65.984413,23.048557 67.137253,24.047508 68.647079,25.108042 
	C68.730637,25.908630 68.457207,26.647636 67.991150,27.931679 
	C67.532806,28.984575 67.267097,29.492434 67.001396,30.000294 
	C66.555916,30.001671 66.110443,30.003046 65.165405,30.220528 
	C64.431648,30.923929 64.197456,31.411228 63.963257,31.898525 
z"/>
<path fill="#8C8C4A" opacity="1.000000" stroke="none" 
	d="
M21.153870,68.395447 
	C22.874086,73.019440 26.374075,74.516052 31.525225,74.132660 
	C37.295952,73.703133 43.121975,74.016434 49.382351,74.004471 
	C48.355618,74.667206 46.890366,75.847168 45.381794,75.905418 
	C39.593601,76.128922 33.791481,76.004372 27.994621,75.987297 
	C21.493294,75.968147 21.029100,75.475624 21.153870,68.395447 
z"/>
<path fill="#949645" opacity="1.000000" stroke="none" 
	d="
M157.004059,60.441853 
	C159.483215,58.112560 162.022583,56.188450 164.825638,54.101440 
	C165.593063,54.265404 166.096832,54.592262 166.905060,54.967968 
	C167.209534,55.016819 167.149826,54.946182 167.115479,54.917671 
	C167.609970,56.184059 168.138824,57.478958 168.706802,58.869694 
	C165.065109,61.502262 161.501205,63.653076 157.004059,60.441853 
z"/>
<path fill="#C18442" opacity="1.000000" stroke="none" 
	d="
M5.610224,6.189703 
	C5.963913,15.170614 5.948171,24.398367 5.958358,33.626091 
	C5.967185,41.622688 5.980179,41.622673 13.634165,43.937073 
	C4.994411,43.699692 4.959066,43.699528 5.000582,34.814682 
	C5.044783,25.355114 5.165016,15.895901 5.610224,6.189703 
z"/>
<path fill="#CD8132" opacity="1.000000" stroke="none" 
	d="
M54.928749,25.399536 
	C52.757660,25.906965 50.173580,28.799753 48.740353,24.713127 
	C47.937473,25.015051 47.134598,25.316973 46.134201,25.801123 
	C46.017826,24.536316 46.098969,23.089281 46.259453,20.227442 
	C48.884895,23.580326 54.719604,17.257248 54.928749,25.399536 
z"/>
<path fill="#CA8944" opacity="1.000000" stroke="none" 
	d="
M96.573944,23.955761 
	C97.172920,25.532335 97.681435,27.176926 97.538338,28.762714 
	C97.425964,30.007944 96.508331,31.180508 95.948433,32.385353 
	C94.990128,31.512159 93.868904,30.757866 93.120026,29.731817 
	C92.393867,28.736887 92.050247,27.462753 91.230835,26.128515 
	C92.682899,25.296669 94.442741,24.647549 96.573944,23.955761 
z"/>
<path fill="#C58A44" opacity="1.000000" stroke="none" 
	d="
M101.375282,70.068459 
	C101.261581,69.582428 101.496613,69.049171 101.891045,68.238617 
	C102.050453,67.961327 102.005043,68.007271 102.005043,68.007271 
	C99.671631,67.841034 97.338226,67.674797 94.057007,67.441032 
	C97.710434,61.602299 101.226311,66.164734 104.704666,66.015770 
	C103.970039,67.378662 102.847023,68.699944 101.375282,70.068459 
z"/>
<path fill="#BF8B51" opacity="1.000000" stroke="none" 
	d="
M34.114002,36.814270 
	C33.586308,28.168646 33.188137,19.359169 32.823238,10.548314 
	C32.768982,9.238246 32.871410,7.921689 32.916649,6.172898 
	C33.288429,7.408417 33.893883,9.069510 33.959167,10.751567 
	C34.275433,18.900135 34.446686,27.054333 34.764309,35.621662 
	C34.636280,36.220119 34.434620,36.424515 34.114002,36.814270 
z"/>
<path fill="#918F48" opacity="1.000000" stroke="none" 
	d="
M68.146881,57.668262 
	C62.279453,56.047398 68.376045,53.733013 67.869934,51.384499 
	C68.556786,51.213314 69.163353,51.287949 69.925301,51.639427 
	C69.488014,53.727108 68.895363,55.537941 68.146881,57.668262 
z"/>
<path fill="#C18442" opacity="1.000000" stroke="none" 
	d="
M25.559576,5.073352 
	C19.646597,5.427224 13.266562,5.712236 6.414751,5.982870 
	C12.326158,5.647160 18.709339,5.325826 25.559576,5.073352 
z"/>
<path fill="#BD8D4C" opacity="1.000000" stroke="none" 
	d="
M106.012505,51.502720 
	C105.442635,52.766388 104.874756,53.668404 104.090347,54.808357 
	C103.652870,52.617435 103.431931,50.188564 103.092377,47.462814 
	C103.987335,48.490978 105.000916,49.816021 106.012505,51.502720 
z"/>
<path fill="#CD8132" opacity="1.000000" stroke="none" 
	d="
M51.140205,34.365494 
	C52.938465,34.008736 54.258060,28.461723 56.881859,33.691475 
	C55.061882,34.231236 53.190468,34.446091 51.140205,34.365494 
z"/>
<path fill="#CD8132" opacity="1.000000" stroke="none" 
	d="
M59.722557,24.181326 
	C59.473587,25.601431 58.930798,27.030945 58.205223,28.729805 
	C57.120621,28.224010 56.218800,27.448870 55.191601,26.319569 
	C55.242447,25.930092 55.417423,25.935457 56.001778,25.940147 
	C56.939117,25.660175 57.465832,25.421558 57.992546,25.182940 
	C58.471279,24.852203 58.950008,24.521469 59.722557,24.181326 
z"/>
<path fill="#959359" opacity="1.000000" stroke="none" 
	d="
M135.382599,60.840977 
	C135.025894,58.289940 135.004730,55.498219 135.012238,52.312820 
	C135.266663,54.812862 135.492416,57.706577 135.382599,60.840977 
z"/>
<path fill="#BD8D4C" opacity="1.000000" stroke="none" 
	d="
M99.610992,47.085445 
	C97.865013,47.446140 95.761299,47.725098 93.236687,48.014236 
	C94.961609,47.684185 97.107430,47.343945 99.610992,47.085445 
z"/>
<path fill="#CD8132" opacity="1.000000" stroke="none" 
	d="
M57.209717,34.406673 
	C59.724636,34.049526 62.461143,34.034145 65.656677,34.029213 
	C63.220905,34.275921 60.326107,34.512180 57.209717,34.406673 
z"/>
<path fill="#959359" opacity="1.000000" stroke="none" 
	d="
M134.847702,51.626846 
	C132.641586,51.978516 130.201981,51.995335 127.301270,52.020233 
	C129.431519,51.782875 132.022858,51.537437 134.847702,51.626846 
z"/>
<path fill="#8F903A" opacity="1.000000" stroke="none" 
	d="
M153.317139,61.889759 
	C153.850677,61.159412 154.703857,60.484909 155.802094,59.953548 
	C155.243683,60.712994 154.440247,61.329296 153.317139,61.889759 
z"/>
<path fill="#959359" opacity="1.000000" stroke="none" 
	d="
M128.119110,61.350754 
	C129.991867,61.017464 132.088852,61.012997 134.634476,61.025307 
	C132.836517,61.254581 130.589920,61.467079 128.119110,61.350754 
z"/>
<path fill="#C9853A" opacity="1.000000" stroke="none" 
	d="
M109.996292,33.318367 
	C111.492287,33.189850 112.989517,33.366051 114.737778,33.695881 
	C113.570496,34.142918 112.152176,34.436329 110.367493,34.786072 
	C109.999931,34.435966 109.998726,34.029530 109.996292,33.318367 
z"/>
<path fill="#CC8539" opacity="1.000000" stroke="none" 
	d="
M76.610291,25.782112 
	C75.477211,25.735476 73.983078,25.612755 72.250290,25.337711 
	C73.424164,25.358936 74.836700,25.532482 76.610291,25.782112 
z"/>
<path fill="#C58A44" opacity="1.000000" stroke="none" 
	d="
M104.009949,61.361076 
	C104.180504,61.014599 104.365562,61.023518 104.827499,61.052177 
	C105.075394,62.129307 105.046410,63.186695 105.046722,64.642708 
	C104.725494,63.933044 104.374969,62.824760 104.009949,61.361076 
z"/>
<path fill="#8F903A" opacity="1.000000" stroke="none" 
	d="
M148.107330,61.345802 
	C148.582123,61.191994 149.192688,61.312531 149.901794,61.631630 
	C149.414581,61.760174 148.828842,61.690159 148.107330,61.345802 
z"/>
<path fill="#8F903A" opacity="1.000000" stroke="none" 
	d="
M145.671310,57.093849 
	C145.965546,57.707367 145.978867,58.487648 145.987457,59.657684 
	C145.785278,59.118504 145.587830,58.189556 145.671310,57.093849 
z"/>
<path fill="#C58A44" opacity="1.000000" stroke="none" 
	d="
M98.346725,70.921356 
	C98.812607,70.593300 99.626091,70.334457 100.763306,70.066040 
	C100.289459,70.367821 99.491890,70.679199 98.346725,70.921356 
z"/>
<path fill="#918F48" opacity="1.000000" stroke="none" 
	d="
M65.939896,49.673252 
	C65.304153,49.975948 64.509857,49.979343 63.318485,49.961914 
	C63.874725,49.752045 64.828041,49.562996 65.939896,49.673252 
z"/>
<path fill="#CC8539" opacity="1.000000" stroke="none" 
	d="
M57.672821,25.124092 
	C57.465832,25.421558 56.939117,25.660175 56.129677,25.973312 
	C56.348999,25.720304 56.851051,25.392775 57.672821,25.124092 
z"/>
<path fill="#CC8539" opacity="1.000000" stroke="none" 
	d="
M78.691223,25.122766 
	C79.001984,25.181257 79.001610,25.581331 79.001709,25.780727 
	C78.533882,25.976934 78.065941,25.973745 77.246910,25.950150 
	C77.390694,25.641253 77.885574,25.352764 78.691223,25.122766 
z"/>
<path fill="#93923C" opacity="1.000000" stroke="none" 
	d="
M155.007751,52.696114 
	C154.858032,52.721325 154.605469,52.496429 154.172668,52.091381 
	C154.296570,52.089489 154.600739,52.267746 155.007751,52.696114 
z"/>
<path fill="#CE7F2C" opacity="1.000000" stroke="none" 
	d="
M104.018822,25.750629 
	C103.912079,25.991568 103.712265,25.989214 103.212845,25.976440 
	C103.250748,25.813128 103.588249,25.660234 104.018822,25.750629 
z"/>
<path fill="#918F48" opacity="1.000000" stroke="none" 
	d="
M62.732437,49.998734 
	C62.835178,50.182762 62.661896,50.441166 62.309635,50.858559 
	C62.261024,50.717346 62.369614,50.402531 62.732437,49.998734 
z"/>
<path fill="#C58A44" opacity="1.000000" stroke="none" 
	d="
M105.293289,65.993378 
	C105.047142,65.890121 105.038216,65.696259 105.038162,65.211006 
	C105.208183,65.247337 105.369347,65.575050 105.293289,65.993378 
z"/>
<path fill="#000000" opacity="1.000000" stroke="none" 
	d="
M37.039047,55.003147 
	C37.041348,58.975285 37.034191,62.460014 37.056992,65.944542 
	C37.060059,66.413406 37.214054,66.881279 37.505417,68.503723 
	C35.930054,67.523178 34.190098,66.955566 34.178387,66.354294 
	C34.039577,59.229801 34.138802,52.099915 34.270206,44.973186 
	C34.276630,44.624653 35.157959,44.292248 37.038998,42.943096 
	C37.038998,47.594437 37.038998,51.055054 37.039047,55.003147 
z"/>
<path fill="#000000" opacity="1.000000" stroke="none" 
	d="
M26.969755,23.130974 
	C30.104063,26.748852 29.787788,30.725266 27.642981,34.508854 
	C26.152454,37.138241 17.907431,38.077984 13.979424,36.480862 
	C10.815970,35.194603 9.178479,33.110031 10.766631,28.047409 
	C12.610472,29.950281 13.935506,31.317739 16.027792,32.829964 
	C17.286095,32.990086 17.779053,33.040897 18.267868,33.014633 
	C20.362381,32.902103 22.958551,33.450901 24.378307,32.407158 
	C25.378408,31.671925 25.554644,28.216755 24.680319,26.973566 
	C23.776552,25.688513 21.195951,25.371996 19.279938,25.071775 
	C17.534105,24.798222 15.695861,25.114443 13.898350,25.170708 
	C9.488589,23.414282 9.760093,19.680033 10.250023,15.421015 
	C10.597104,14.582596 10.699664,14.279971 10.802225,13.977347 
	C10.802225,13.977347 10.968341,13.561864 11.414736,13.256331 
	C16.561731,12.660928 21.262333,12.371057 25.962933,12.081185 
	C25.962933,12.081185 25.989885,12.017475 26.037487,12.263952 
	C26.374220,12.710152 26.663353,12.909873 26.952484,13.109594 
	C26.986328,13.453897 27.149214,13.718879 27.723320,14.364355 
	C27.978294,15.871966 27.951092,16.919760 27.923889,17.967554 
	C27.923889,17.967554 27.982777,17.986223 27.561838,17.989408 
	C24.611607,16.588184 22.702557,13.854395 19.078613,14.920587 
	C17.051144,15.517084 13.568658,14.377394 14.250204,17.874418 
	C14.628875,19.817381 17.116779,22.020592 19.152222,22.791973 
	C21.468256,23.669691 24.339718,23.081812 26.969755,23.130974 
z"/>
<path fill="#CA8032" opacity="1.000000" stroke="none" 
	d="
M27.008991,22.753231 
	C24.339718,23.081812 21.468256,23.669691 19.152222,22.791973 
	C17.116779,22.020592 14.628875,19.817381 14.250204,17.874418 
	C13.568658,14.377394 17.051144,15.517084 19.078613,14.920587 
	C22.702557,13.854395 24.611607,16.588184 27.551785,17.960201 
	C27.657856,19.410370 27.353043,20.892931 27.008991,22.753231 
z"/>
<path fill="#C48644" opacity="1.000000" stroke="none" 
	d="
M14.262435,25.326056 
	C15.695861,25.114443 17.534105,24.798222 19.279938,25.071775 
	C21.195951,25.371996 23.776552,25.688513 24.680319,26.973566 
	C25.554644,28.216755 25.378408,31.671925 24.378307,32.407158 
	C22.958551,33.450901 20.362381,32.902103 18.267868,33.014633 
	C17.779053,33.040897 17.286095,32.990086 16.389503,32.905144 
	C17.433193,32.550739 18.960407,32.461216 20.308424,31.922934 
	C21.514055,31.441504 22.522066,30.465179 23.617273,29.707218 
	C22.581102,28.578608 21.744102,26.974594 20.460413,26.436789 
	C18.692646,25.696173 16.587267,25.761398 14.262435,25.326056 
z"/>
<path fill="#CA8032" opacity="1.000000" stroke="none" 
	d="
M25.807987,11.783894 
	C21.262333,12.371057 16.561731,12.660928 11.446297,13.034838 
	C13.941733,9.606439 20.039553,8.925710 25.807987,11.783894 
z"/>
<path fill="#CA8032" opacity="1.000000" stroke="none" 
	d="
M28.189877,17.843971 
	C27.951092,16.919760 27.978294,15.871966 27.952648,14.435448 
	C28.085155,15.271278 28.270512,16.495832 28.189877,17.843971 
z"/>
<path fill="#CA8032" opacity="1.000000" stroke="none" 
	d="
M10.656585,14.153603 
	C10.699664,14.279971 10.597104,14.582596 10.260557,14.994514 
	C10.166682,14.832464 10.328139,14.574481 10.656585,14.153603 
z"/>
<path fill="#CA8032" opacity="1.000000" stroke="none" 
	d="
M26.794456,12.912230 
	C26.663353,12.909873 26.374220,12.710152 26.005011,12.252052 
	C26.162098,12.234071 26.399261,12.474469 26.794456,12.912230 
z"/>
<path fill="#BD8D4C" opacity="1.000000" stroke="none" 
	d="
M103.485840,55.953186 
	C103.324547,57.078472 102.837509,58.263676 102.194435,59.734562 
	C101.325188,59.510380 100.611977,59.000511 99.898766,58.490639 
	C100.985870,57.664791 102.072983,56.838947 103.485840,55.953186 
z"/>
<path fill="#C58A44" opacity="1.000000" stroke="none" 
	d="
M103.185638,60.286118 
	C103.294968,60.267956 103.524895,60.443741 103.860809,60.829788 
	C103.762100,60.831306 103.541916,60.644642 103.185638,60.286118 
z"/>
<path fill="#CD8132" opacity="1.000000" stroke="none" 
	d="
M67.273804,30.172464 
	C67.267097,29.492434 67.532806,28.984575 67.933937,28.222187 
	C69.369820,28.755934 70.670273,29.544207 71.989189,30.910761 
	C72.007645,31.489042 72.013069,31.987137 72.013069,31.987137 
	C72.013069,31.987137 71.998016,32.000633 71.745224,32.004475 
	C71.492432,32.008316 71.004066,32.009357 71.004066,32.009357 
	C69.851448,31.454451 68.698822,30.899544 67.273804,30.172464 
z"/>
<path fill="#CD8132" opacity="1.000000" stroke="none" 
	d="
M64.136818,31.689335 
	C64.197456,31.411228 64.431648,30.923929 64.831291,30.220190 
	C64.767952,30.495880 64.539162,30.988012 64.136818,31.689335 
z"/>
<path fill="#CC8539" opacity="1.000000" stroke="none" 
	d="
M72.149155,31.938934 
	C72.013069,31.987137 72.007645,31.489042 72.005043,31.239883 
	C72.200417,31.183584 72.403557,31.372046 72.581779,31.581703 
	C72.591148,31.592724 72.388947,31.783592 72.149155,31.938934 
z"/>
<path fill="#CC8539" opacity="1.000000" stroke="none" 
	d="
M71.121384,32.066132 
	C71.004066,32.009357 71.492432,32.008316 71.736343,32.009300 
	C71.980263,32.010288 71.620293,32.148987 71.620293,32.148987 
	C71.620293,32.148987 71.238701,32.122906 71.121384,32.066132 
z"/>
<path fill="#8F903A" opacity="1.000000" stroke="none" 
	d="
M148.151306,57.197094 
	C148.486053,56.722141 148.974670,56.447773 149.731857,56.089035 
	C149.966751,56.720455 149.933090,57.436241 149.899414,58.152023 
	C149.367996,57.900574 148.836578,57.649124 148.151306,57.197094 
z"/>
<path fill="#CB8132" opacity="1.000000" stroke="none" 
	d="
M102.002502,68.003662 
	C102.005043,68.007271 102.050453,67.961327 102.021606,67.978157 
	C101.992752,67.994987 101.999954,68.000053 102.002502,68.003662 
z"/>
</svg>